<?xml version="1.0" encoding="UTF-8"?>
<svg width="30px" height="27px" viewBox="0 0 30 27" version="1.1" xmlns="http://www.w3.org/2000/svg" xmlns:xlink="http://www.w3.org/1999/xlink">
    <!-- Generator: sketchtool 57.1 (101010) - https://sketch.com -->
    <title>C62FA38E-D71A-448E-A2A9-F630A1294FED</title>
    <desc>Created with sketchtool.</desc>
    <g id="Landing-pages" stroke="none" stroke-width="1" fill="none" fill-rule="evenodd" opacity="0.232119606">
        <g id="Crowd---Landing-Page" transform="translate(-994.000000, -1523.000000)" fill="#1A0F0F" fill-rule="nonzero">
            <path d="M1023.75586,1535.74416 L1011.25586,1523.24416 C1010.93031,1522.91861 1010.40297,1522.91861 1010.0775,1523.24416 C1009.75195,1523.56971 1009.75195,1524.09705 1010.0775,1524.42252 L1021.155,1535.50002 L994.833359,1535.50002 C994.372734,1535.50002 994,1535.87275 994,1536.33338 C994,1536.794 994.372734,1537.16674 994.833359,1537.16674 L1021.155,1537.16674 L1010.0775,1548.24416 C1009.75195,1548.56971 1009.75195,1549.09705 1010.0775,1549.42252 C1010.24023,1549.58525 1010.45352,1549.66666 1010.66672,1549.66666 C1010.87992,1549.66666 1011.09312,1549.58525 1011.25594,1549.42252 L1023.75594,1536.92252 C1024.08141,1536.59705 1024.08141,1536.06971 1023.75586,1535.74416 Z" id="Path" transform="translate(1009.000015, 1536.333330) rotate(-360.000000) translate(-1009.000015, -1536.333330) "></path>
        </g>
    </g>
</svg>