<?xml version="1.0" encoding="UTF-8"?>
<svg width="28px" height="31px" viewBox="0 0 28 31" version="1.1" xmlns="http://www.w3.org/2000/svg" xmlns:xlink="http://www.w3.org/1999/xlink">
    <!-- Generator: sketchtool 57.1 (101010) - https://sketch.com -->
    <title>055F3681-8A90-459D-8367-3B24C2F5C16B</title>
    <desc>Created with sketchtool.</desc>
    <g id="Landing-pages" stroke="none" stroke-width="1" fill="none" fill-rule="evenodd">
        <g id="Crowd---Landing-Page" transform="translate(-686.000000, -735.000000)" fill="#FF4A32" fill-rule="nonzero">
            <g id="Group-7" transform="translate(686.000000, 735.000000)">
                <path d="M28.7558936,14.7441602 L16.2558936,2.24416016 C15.9303467,1.91861328 15.4030029,1.91861328 15.0775342,2.24416016 C14.7519873,2.56970703 14.7519873,3.09705078 15.0775342,3.42251953 L26.1550342,14.5000195 L-0.166606446,14.5000195 C-0.627231446,14.5000195 -0.999965821,14.8727539 -0.999965821,15.3333789 C-0.999965821,15.7940039 -0.627231446,16.1667383 -0.166606446,16.1667383 L26.1550342,16.1667383 L15.0775342,27.2441602 C14.7519873,27.569707 14.7519873,28.0970508 15.0775342,28.4225195 C15.2402686,28.5852539 15.4535498,28.6666602 15.6667529,28.6666602 C15.8799561,28.6666602 16.0931592,28.5852539 16.2559717,28.4225195 L28.7559717,15.9225195 C29.0814404,15.5970508 29.0814404,15.069707 28.7558936,14.7441602 Z" id="Path" transform="translate(14.000049, 15.333330) rotate(-270.000000) translate(-14.000049, -15.333330) "></path>
            </g>
        </g>
    </g>
</svg>